<svg width="28" height="28" viewBox="0 0 28 28" fill="none" xmlns="http://www.w3.org/2000/svg">
<path fill-rule="evenodd" clip-rule="evenodd" d="M19.2582 19.9266C23.8437 19.9266 27.5609 16.1912 27.5609 11.5833C27.5609 6.97548 17.1205 0 12.535 0C9.95617 0 11.1234 1.93723 12.6389 4.45234C13.8181 6.40941 15.2081 8.71637 15.2081 10.7328C15.2081 11.1731 15.2032 11.6132 15.1983 12.0491C15.1525 16.1751 15.1109 19.9266 19.2582 19.9266ZM8.24677 8.2455C3.6922 8.77694 0.432919 12.918 0.966959 17.4948C1.501 22.0716 12.6795 27.79 17.2341 27.2586C19.7956 26.9597 18.4117 25.1708 16.6149 22.8483C15.2169 21.0411 13.5688 18.9107 13.3351 16.9079C13.2841 16.4706 13.238 16.0329 13.1922 15.5994C12.7596 11.4958 12.3662 7.76483 8.24677 8.2455Z" fill="#090909"/>
</svg>
